<svg xmlns="http://www.w3.org/2000/svg" width="16" height="16" viewBox="0 0 16 16">
  <g fill="none" fill-rule="evenodd">
    <path fill="#FFF" d="M1,3 L15,3 C15.5522847,3 16,3.44771525 16,4 L16,6 L16,6 L0,6 L0,4 C-6.76353751e-17,3.44771525 0.44771525,3 1,3 Z"/>
    <rect width="1" height="3" x="2" y="1" fill="#FFF"/>
    <rect width="1" height="3" x="13" y="1" fill="#FFF"/>
    <path fill="#FFF" d="M16,7 L16,15 C16,15.5522847 15.5522847,16 15,16 L1,16 C0.44771525,16 6.76353751e-17,15.5522847 0,15 L0,7 L16,7 Z M3,8 L2,8 C1.44771525,8 1,8.44771525 1,9 L1,9 L1,10 C1,10.5522847 1.44771525,11 2,11 L2,11 L3,11 C3.55228475,11 4,10.5522847 4,10 L4,10 L4,9 C4,8.44771525 3.55228475,8 3,8 L3,8 Z"/>
  </g>
</svg>
