<svg xmlns="http://www.w3.org/2000/svg" width="16" height="16" viewBox="0 0 16 16">
  <g fill="none" fill-rule="evenodd">
    <path fill="#FFF" d="M1,3 L15,3 C15.5522847,3 16,3.44771525 16,4 L16,6 L16,6 L0,6 L0,4 C-6.76353751e-17,3.44771525 0.44771525,3 1,3 Z"/>
    <rect width="1" height="3" x="2" y="1" fill="#FFF"/>
    <rect width="1" height="3" x="13" y="1" fill="#FFF"/>
    <path fill="#FFF" d="M1,8 L3,8 L3,10 L1,10 L1,8 Z M5,8 L7,8 L7,10 L5,10 L5,8 Z M9,8 L11,8 L11,10 L9,10 L9,8 Z M13,8 L15,8 L15,10 L13,10 L13,8 Z M1,11 L3,11 L3,13 L1,13 L1,11 Z M5,11 L7,11 L7,13 L5,13 L5,11 Z M9,11 L11,11 L11,13 L9,13 L9,11 Z M16,7 L16,15 C16,15.5522847 15.5522847,16 15,16 L1,16 C0.44771525,16 6.76353751e-17,15.5522847 0,15 L0,7 L16,7 Z M15,11 L13,11 L13,13 L15,13 L15,11 Z"/>
  </g>
</svg>
