<svg xmlns="http://www.w3.org/2000/svg" width="16" height="16" viewBox="0 0 16 16">
  <path fill="#FFF" fill-rule="evenodd" d="M8,0 C12.418278,0 16,3.581722 16,8 C16,12.418278 12.418278,16 8,16 C3.581722,16 0,12.418278 0,8 C0,3.581722 3.581722,0 8,0 Z M8.94433594,4.79589844 L5,4.79589844 L5,6.15625 L7.296875,6.15625 L7.296875,10.8388672 L5,10.8388672 L5,12.1923828 L11.1386719,12.1923828 L11.1386719,10.8388672 L8.94433594,10.8388672 L8.94433594,4.79589844 Z M8.09667969,2 C7.80045425,2 7.57031332,2.08316974 7.40625,2.24951172 C7.24218668,2.4158537 7.16015625,2.62662633 7.16015625,2.88183594 C7.16015625,3.13704555 7.24218668,3.34781818 7.40625,3.51416016 C7.57031332,3.68050213 7.80045425,3.76367188 8.09667969,3.76367188 C8.39746244,3.76367188 8.6310213,3.68050213 8.79736328,3.51416016 C8.96370526,3.34781818 9.046875,3.13704555 9.046875,2.88183594 C9.046875,2.62662633 8.96370526,2.4158537 8.79736328,2.24951172 C8.6310213,2.08316974 8.39746244,2 8.09667969,2 Z"/>
</svg>
