<svg xmlns="http://www.w3.org/2000/svg" width="16" height="16" viewBox="0 0 16 16">
  <g fill="none" fill-rule="evenodd">
    <circle cx="8" cy="8" r="7.5" stroke="#FFF"/>
    <path fill="#FFF" fill-rule="nonzero" d="M5,4.79589844 L8.94433594,4.79589844 L8.94433594,10.8388672 L11.1386719,10.8388672 L11.1386719,12.1923828 L5,12.1923828 L5,10.8388672 L7.296875,10.8388672 L7.296875,6.15625 L5,6.15625 L5,4.79589844 Z M7.16015625,2.88183594 C7.16015625,2.62662633 7.24218668,2.4158537 7.40625,2.24951172 C7.57031332,2.08316974 7.80045425,2 8.09667969,2 C8.39746244,2 8.6310213,2.08316974 8.79736328,2.24951172 C8.96370526,2.4158537 9.046875,2.62662633 9.046875,2.88183594 C9.046875,3.13704555 8.96370526,3.34781818 8.79736328,3.51416016 C8.6310213,3.68050213 8.39746244,3.76367188 8.09667969,3.76367188 C7.80045425,3.76367188 7.57031332,3.68050213 7.40625,3.51416016 C7.24218668,3.34781818 7.16015625,3.13704555 7.16015625,2.88183594 Z"/>
  </g>
</svg>
