<svg xmlns="http://www.w3.org/2000/svg" width="16" height="16" viewBox="0 0 16 16">
  <g fill="none" fill-rule="evenodd">
    <path stroke="#979797" stroke-linecap="square" d="M1.5,7.5 L1.5,7.5"/>
    <path stroke="#FFF" d="M1,8 C3,5.33333333 5.33333333,4 8,4 C10.6666667,4 13,5.33333333 15,8 C13,10.6666667 10.6666667,12 8,12 C5.33333333,12 3,10.6666667 1,8 Z"/>
    <path fill="#FFF" d="M8,6 C8.20566563,6 8.40408069,6.0310434 8.59081507,6.08870008 C8.24206058,6.24435282 8,6.59390827 8,7 C8,7.55228475 8.44771525,8 9,8 C9.40609173,8 9.75564718,7.75793942 9.91225142,7.41023319 C9.9689566,7.59591931 10,7.79433437 10,8 C10,9.1045695 9.1045695,10 8,10 C6.8954305,10 6,9.1045695 6,8 C6,6.8954305 6.8954305,6 8,6 Z"/>
  </g>
</svg>
