<svg xmlns="http://www.w3.org/2000/svg" width="23" height="39" viewBox="0 0 23 39">
  <g fill="#FFF" fill-rule="evenodd" transform="translate(-1)">
    <path d="M15.0029074,0 C19.9734702,8.63279275e-16 24.0029074,4.02943725 24.0029074,9 C24.0029074,9.31470293 23.9864011,9.62918928 23.9534565,9.94216306 L23,19 L23.7562035,26.5620351 C24.3778665,32.7786647 19.8422499,38.322196 13.6256204,38.943859 C13.2515794,38.9812631 12.8759065,39 12.5,39 C6.25236463,39 1.18765547,33.9352908 1.18765547,27.6876555 C1.18765547,27.311749 1.20639239,26.9360761 1.24379649,26.5620351 L2,19 L1.04654348,9.94216306 C0.52620119,4.9989113 4.11167774,0.569793214 9.0549295,0.0494509237 C9.36790328,0.0165063149 9.68238962,1.83416683e-15 9.99709256,0 L15.0029074,0 Z M13.5516393,1 L11.2341508,1 C10.8495589,1 10.4653624,1.0246518 10.0839243,1.07380378 C5.15412229,1.70905634 1.67270207,6.22042447 2.30795463,11.1502265 L2.30795463,11.1502265 L3.26,18.5384615 L2.67838208,27.5219373 C2.66467703,27.7336209 2.65781913,27.9456923 2.65781913,28.1578191 C2.65781913,33.5935055 7.0643136,38 12.5,38 C12.7121268,38 12.9241982,37.9931421 13.1358818,37.9794371 C18.5602116,37.6282492 22.6728058,32.9462671 22.3216179,27.5219373 L22.3216179,27.5219373 L21.74,18.5384615 L22.5066623,10.8986444 C22.5366282,10.6000335 22.5516393,10.3001107 22.5516393,10 C22.5516393,5.02943725 18.522202,1 13.5516393,1 L13.5516393,1 Z"/>
    <polygon points="12 0 13 0 13 2.769 13 6 13 18 12 18 12 6 12 4.154"/>
    <rect width="3" height="10" x="11" y="3"/>
  </g>
</svg>
