<svg xmlns="http://www.w3.org/2000/svg" width="23" height="39" viewBox="0 0 23 39">
  <g fill="#FFF" fill-rule="evenodd">
    <path d="M12.5516393,0 C15.313063,0 17.813063,1.11928813 19.6227071,2.92893219 C21.4323512,4.73857625 22.5516393,7.23857625 22.5516393,10 C22.5516393,10.3334563 22.5349603,10.6667039 22.5016649,10.9984938 L21.7432422,18.5562023 L22.3195286,27.4573295 C22.5129635,30.4450598 21.4770689,33.228347 19.6458831,35.3130602 C17.8146972,37.3977735 15.18822,38.7839129 12.2004896,38.9773478 C11.9672982,38.9924453 11.7336796,39 11.5,39 C8.50601443,39 5.79546921,37.7864476 3.83342039,35.8243987 C1.87137156,33.8623499 0.657819133,31.1518047 0.657819133,28.1578191 C0.657819133,27.9241395 0.665373818,27.6905209 0.68047135,27.4573295 L1.2558415,18.5703546 L0.316155047,11.2780295 C-0.0367630431,8.53925054 0.753839085,5.91670327 2.31736546,3.89062121 C3.88089184,1.86453915 6.21734247,0.434922289 8.95612139,0.0820041993 C9.37994151,0.0273908874 9.80682649,0 10.2341508,0 L12.5516393,0 Z M12.5516393,1 L11.9990502,1 L12,17.5 C12,17.7761424 11.7761424,18 11.5,18 C11.2238576,18 11,17.7761424 11,17.5 L10.9990502,1 L10.2341508,1 C9.84955892,1 9.46536244,1.0246518 9.08392433,1.07380378 C4.24215447,1.69771255 0.797500358,6.06054018 1.27784619,10.88655 L1.30795463,11.1502265 L2.26,18.5384615 L1.67838208,27.5219373 C1.66467703,27.7336209 1.65781913,27.9456923 1.65781913,28.1578191 C1.65781913,33.5935055 6.0643136,38 11.5,38 C11.7121268,38 11.9241982,37.9931421 12.1358818,37.9794371 C17.4682738,37.6342016 21.533019,33.1037342 21.3356433,27.7970934 L21.3216179,27.5219373 L20.74,18.5384615 L21.5066623,10.8986444 C21.5366282,10.6000335 21.5516393,10.3001107 21.5516393,10 C21.5516393,5.02943725 17.522202,1 12.5516393,1 Z"/>
    <path d="M11.5 3C12.3284271 3 13 3.67157288 13 4.5L13 11.5C13 12.3284271 12.3284271 13 11.5 13 10.6715729 13 10 12.3284271 10 11.5L10 4.5C10 3.67157288 10.6715729 3 11.5 3zM16 8.5C16 8.22385763 16.2238576 8 16.5 8 16.7761424 8 17 8.22385763 17 8.5L17 13 19 13 16.5 16 14 13 16 13 16 8.5z"/>
  </g>
</svg>
